<svg xmlns="http://www.w3.org/2000/svg" width="40px" height="40px" version="1.0"
viewBox="0 0 40 40">
    <g>
        <rect fill="#396" width="40" height="40"/>
        <g>
        <path fill="#063" d="M9.732 40l1.082 0c0.073,-1.373 0.007,-2.811 -0.071,-4.103 -0.107,0.029 -0.762,0.566 -2.006,1.019 -0.908,0.33 -3.308,1.555 -4.954,3.084l1.826 0c1.522,-1.011 3.429,-1.766 4.279,-1.999 -0.03,0.751 -0.082,1.413 -0.156,1.999zm-7.666 0c0.337,-2.508 -0.571,-3.989 -2.066,-4.836l0 1.671c0.882,0.742 1.549,1.772 1.871,3.165l0.195 0z"/>
        </g>
        <path fill="#063" d="M31.891 40l1.601 0c-0.99,-1.651 -1.63,-3.539 -1.719,-4.603 2.801,-0.465 6.125,-0.329 8.227,1.438l0 -1.671c-3.011,-1.707 -8.406,-0.851 -10.846,-0.658 0.707,0.948 1.566,3.301 2.737,5.494zm6.184 0l1.67 0c-1.147,-0.978 -2.521,-1.861 -3.746,-2.045 0.641,0.563 1.364,1.252 2.076,2.045z"/>
        <g>
        <path fill="none" d="M0 3.371c0.506,-0.393 1.035,-0.892 1.588,-1.508 -0.397,-0.487 -0.951,-1.072 -1.588,-1.64m1.871 -0.223c0.041,0.176 0.076,0.357 0.106,0.545 0.036,-0.187 0.066,-0.369 0.089,-0.545"/>
        <path fill="#063" d="M3.783 0l1.826 0c-1.805,1.199 -3.069,2.759 -1.385,4.239 1.237,-0.552 2.79,-2.569 3.381,-3.135 -0.424,1.813 -1.751,3.38 -3.277,4.385 -3.304,-1.647 -2.406,-3.761 -0.545,-5.489zm5.949 0l1.082 0c-0.187,3.546 -1.296,6.661 -5.496,5.705 2.044,-1.188 3.848,-1.196 4.414,-5.705z"/>
        </g>
        <path fill="#063" d="M31.891 0l1.601 0c1.511,2.523 3.835,4.492 6.243,2.122 -0.513,-0.768 -1.082,-1.479 -1.66,-2.122l1.67 0c0.086,0.074 0.171,0.148 0.255,0.223l0 3.148c-3.807,2.957 -6.321,-0.022 -8.109,-3.371z"/>
        <g>
        <path fill="#063" d="M9.154 14.506c1.93,2.587 4.995,15.643 12.434,7.357 -1.142,-1.4 -3.568,-3.604 -5.59,-3.908 1.162,1.019 2.591,2.452 3.737,4.167 -3.985,3.921 -7.739,-4.036 -7.962,-6.725 4.126,-0.685 9.386,-0.067 10.204,5.148 1.586,-8.186 -9.086,-6.334 -12.823,-6.039z"/>
        <path fill="#063" d="M29.888 18.001c-0.256,6.526 -2.26,6.362 -4.57,7.704 5.826,1.326 5.704,-5.181 5.425,-9.808 -0.107,0.029 -0.762,0.566 -2.006,1.018 -1.933,0.704 -10.637,5.47 -4.409,8.575 1.526,-1.006 2.853,-2.572 3.277,-4.386 -0.591,0.566 -2.144,2.583 -3.381,3.136 -3.104,-2.729 3.808,-5.729 5.664,-6.239z"/>
        </g>
        <path fill="#063" d="M0 0.223l0 3.148c0.506,-0.393 1.035,-0.892 1.588,-1.508 -0.397,-0.487 -0.951,-1.072 -1.588,-1.64z"/>
        <path fill="#063" d="M2.066 0l-0.195 0c0.041,0.176 0.076,0.357 0.106,0.545 0.036,-0.187 0.065,-0.369 0.089,-0.545z"/>
    </g>
</svg>
